<svg xmlns="http://www.w3.org/2000/svg" viewBox="0 0 660.21 517.33"><defs><style>.cls-1{fill:#609c40;}.cls-2{fill:#377225;}.cls-3{fill:#b2d235;}.cls-4{fill:#006e2b;}</style></defs><title>Asset 11</title><g id="Layer_2" data-name="Layer 2"><g id="Camada_1" data-name="Camada 1"><path class="cls-1" d="M348,232.13a277.72,277.72,0,0,0,50.49-1.58c35.64-36.33,66.82-77,92-114-11,4.34-19.58,1.72-32.44.53,0,0,13.72,1.81,37.25-7.65C535.81,48.85,559.57,0,559.57,0A912.83,912.83,0,0,0,447.43,59.86L447,71.54l-7.83-6.44q-26.56,17.12-49.76,34.67c-.13,7.28-.29,15.57-.45,24.3a66,66,0,0,1-4.83-20.28,768.48,768.48,0,0,0-76.25,66.66c-2.56,12.82-5.29,27.18-6.46,35.66a107.8,107.8,0,0,1-.31-28.8,682.92,682.92,0,0,0-55.82,64.82c-.3,7.81-1,15.91-2.41,21a96.52,96.52,0,0,1-1.77-15.4c-35.87,48.67-49.75,82.44-49.75,82.44l8,8c36.77-1.29,72.25-13.65,105.66-32.94l-13.61-.57,17.23-1.55c30.52-18.15,59.28-42,85.65-68.4A128.08,128.08,0,0,1,348,232.13Z"/><path class="cls-2" d="M495.26,109.41c36.67-54.79,59.61-100,63.66-108.1-52.89,39-319.3,291.63-363.15,333.28l3.6,3.59c36.77-1.29,72.25-13.65,105.66-32.94l-13.61-.57,17.23-1.55c30.52-18.15,59.28-42,85.65-68.4A128.08,128.08,0,0,1,348,232.13a277.72,277.72,0,0,0,50.49-1.58c35.64-36.33,66.82-77,92-114-10.92,4.3-19.45,1.76-32.14.56C460.31,117.28,473.62,118.11,495.26,109.41Z"/><path class="cls-2" d="M192.26,328.13c-.6,1.33-.89,2.05-.89,2.05l.37.37C191.92,329.75,192.08,328.93,192.26,328.13Z"/><path class="cls-3" d="M515.54,41c-277.15,234.13-335.85,299.5-335.85,299.5s-1.33-4.84-1.83-7.09l-33.19,48.44s48-26.35,62.37-27c0,0-19.68-3-16.67-6.67C233.39,298.16,515.54,41,515.54,41ZM161.68,369.53A2.34,2.34,0,1,1,164,367.2,2.33,2.33,0,0,1,161.68,369.53Z"/><path class="cls-4" d="M108.49,408.79s105.21-81.16,467.4-25.55C575.89,383.24,221.21,314.11,108.49,408.79Z"/><path class="cls-2" d="M8.81,445.33a3.37,3.37,0,0,1-2.7.45,2.49,2.49,0,0,1-1.91-1.91,4.58,4.58,0,0,1,.56-3,7,7,0,0,1,2-2.31A37.92,37.92,0,0,1,13,435c2.25-1.05,4.47-2,6.64-2.93.83-.37,2-.86,3.43-1.46A45.41,45.41,0,0,1,27.83,429,43.47,43.47,0,0,1,33,427.83a11.09,11.09,0,0,1,4.5.12A4.55,4.55,0,0,1,40.37,430q1,1.58.28,4.72a25.53,25.53,0,0,1-3,7.49q-2.15,3.54-4.39,6.8-2.14,3.49-4.39,6.87t-4.73,6.86q-3.93,5.85-8,11.81a86.45,86.45,0,0,0-7.15,12.49,4.9,4.9,0,0,0-.67,2.59c.07.68.6.75,1.57.23a32.22,32.22,0,0,0,7.82-6q3.78-3.82,7-7,4.16-4.27,8.55-8.95t9-9.62l19.69-22.5c.37-.45.92-1.14,1.63-2.08a22.7,22.7,0,0,1,2.36-2.65,8.61,8.61,0,0,1,2.7-1.8,2.5,2.5,0,0,1,2.65.45,2.42,2.42,0,0,1,1,2.31,5.34,5.34,0,0,1-1,2.76q-4.17,6.08-8.27,11.87t-7.94,11.59q-3.82,5.79-7.31,11.87T41.22,483q-.57,1.25-1,2.31c-.26.71-.47,1.33-.62,1.86a7.54,7.54,0,0,0-.45,1.68,3.31,3.31,0,0,0,.45,2.08q.45.51,2.25-.39a45.67,45.67,0,0,0,13.28-10q6-6.42,12.15-13.95a132.85,132.85,0,0,0,11.93-16A188.24,188.24,0,0,0,89.6,432.05a20.19,20.19,0,0,1,.84-2.3,11.82,11.82,0,0,1,1.18-2.14A6.12,6.12,0,0,1,93.25,426a4.19,4.19,0,0,1,2.31-.62,2.07,2.07,0,0,1,2,.91,3.81,3.81,0,0,1,.33,2.08,9.6,9.6,0,0,1-.56,2.42c-.3.82-.56,1.5-.79,2a97.07,97.07,0,0,1-5.9,11.65q-3.33,5.56-6.92,11-7.09,10.23-15.19,19.91a125.69,125.69,0,0,1-17.78,17.44q-1.58,1.24-4.22,3a26.08,26.08,0,0,1-5.51,2.87,12,12,0,0,1-5.46.79c-1.73-.19-3-1.3-3.83-3.32a9.19,9.19,0,0,1-.39-5.4,41.05,41.05,0,0,1,1.52-5.29q1-2.92,2.25-5.68t2.7-5.46l2-3.71q-2.59,2.81-5.24,5.51t-5.45,5.29q-2.25,2.25-4.73,4.78t-5.06,4.84a56.41,56.41,0,0,1-5.46,4.27,30.34,30.34,0,0,1-6,3.21,6.54,6.54,0,0,1-5.29.22q-2.47-1-2.59-4.5a12.06,12.06,0,0,1,1-5.85c.82-1.87,1.65-3.67,2.47-5.4a104.71,104.71,0,0,1,7.37-12.49l8.16-11.81q3.6-5.3,7.14-10.69a120,120,0,0,0,6.25-10.58c.52-1.05.43-1.64-.28-1.8a6.55,6.55,0,0,0-2.81.23,24.73,24.73,0,0,0-3.49,1.18,20.43,20.43,0,0,1-2.2.84,66.76,66.76,0,0,0-7.53,3.44Q12.41,443.3,8.81,445.33Z"/><path class="cls-2" d="M103.66,457a5.45,5.45,0,0,1,0,3.1,14.67,14.67,0,0,1-1.35,3.09c1,0,2.19,0,3.43-.11a14.36,14.36,0,0,0,2.65-.34,3.43,3.43,0,0,1,2,.17,2.21,2.21,0,0,1,1.35,1.63,4.59,4.59,0,0,1-1,3.54,40.84,40.84,0,0,1-2.81,3.1c-.23.22-1,1.07-2.37,2.53s-2.74,3.09-4.16,4.89a40,40,0,0,0-3.54,5.18c-.94,1.65-1.07,2.78-.4,3.38a18.21,18.21,0,0,0,8.27-2.37,77.8,77.8,0,0,0,9.17-5.62q4.62-3.27,9.06-6.7a83.59,83.59,0,0,1,8-5.57,3.32,3.32,0,0,1,2.65-.56,3.15,3.15,0,0,1,1.8,1.24,3.29,3.29,0,0,1,.51,2.19,3.9,3.9,0,0,1-1.24,2.42,92.88,92.88,0,0,1-9.51,7.76q-5.46,3.94-11.08,7.21a110.18,110.18,0,0,1-10.75,5.51,29.67,29.67,0,0,1-8.49,2.59c-2.63.37-4.49-.3-5.57-2a8,8,0,0,1-.85-6.19,25.73,25.73,0,0,1,3.44-8,62.1,62.1,0,0,1,5.34-7.15H96.91c-1.28.08-2.59.19-3.94.34a7.27,7.27,0,0,1-3.82-.56,3.42,3.42,0,0,1-2.37-2.48,6.55,6.55,0,0,1,.34-3.54A17.54,17.54,0,0,1,89,462a24.75,24.75,0,0,1,2.08-2.81,31.33,31.33,0,0,1,2.7-2.31,15.53,15.53,0,0,1,3.77-2.19,6.53,6.53,0,0,1,3.71-.45C102.4,454.44,103.21,455.38,103.66,457Z"/><path class="cls-2" d="M135.84,461.76a4.3,4.3,0,0,1,2-1.46,4.67,4.67,0,0,1,2.31-.29,2.51,2.51,0,0,1,1.69,1,3,3,0,0,1,.17,2.53,5.6,5.6,0,0,1-1.41,2.59,23.24,23.24,0,0,0-2,2.36,23.57,23.57,0,0,0-2.7,3.32q-1.35,2-2.64,3.93c-.87,1.32-1.63,2.58-2.31,3.78a27,27,0,0,0-1.46,2.92,17,17,0,0,0-.79,1.86,4.89,4.89,0,0,0-.34,1.63,1,1,0,0,0,.51,1c.34.18,1,0,1.86-.4a48.71,48.71,0,0,0,10.46-5.23c3.38-2.21,6.67-4.33,9.9-6.36,1.87-1.27,3.81-2.72,5.8-4.33a31.66,31.66,0,0,1,6.24-4,3.13,3.13,0,0,1,2.7-.29,2.58,2.58,0,0,1,1.35,1.58,4.32,4.32,0,0,1,0,2.42,5,5,0,0,1-1.35,2.36,33,33,0,0,1-6.19,4.84c-2.32,1.42-4.54,2.81-6.64,4.16s-4.37,2.83-6.58,4.22-4.48,2.72-6.81,4c-2,1.12-4.22,2.27-6.58,3.43a22.5,22.5,0,0,1-7.26,2.19,5,5,0,0,1-2.92-.56,4.28,4.28,0,0,1-1.69-1.86,7.38,7.38,0,0,1-.67-2.64,10.58,10.58,0,0,1,.22-3,31.66,31.66,0,0,1,2.25-7,50.46,50.46,0,0,1,3.66-6.69q2.08-3.21,4.44-6.24C132.69,465.47,134.26,463.56,135.84,461.76Zm19-16.54a7.44,7.44,0,0,1,.12,2.25,5.64,5.64,0,0,1-.9,2.47,6.43,6.43,0,0,1-2.82,2.54,6.5,6.5,0,0,1-3.43.67,4,4,0,0,1-2.7-1.35c-.71-.79-.88-2-.5-3.77a5.72,5.72,0,0,1,1.63-3,9.93,9.93,0,0,1,3.09-2.31,4.58,4.58,0,0,1,3.26-.33C153.65,442.7,154.4,443.64,154.85,445.22Z"/><path class="cls-2" d="M165.54,443.53a3.35,3.35,0,0,1,.9-2,5.16,5.16,0,0,1,1.75-1.24,5,5,0,0,1,1.91-.39,1.91,1.91,0,0,1,1.52.67,14.59,14.59,0,0,0,4.55.23q2.54-.22,6.36-.23c1.13-1.35,2.23-2.7,3.32-4.05s2.23-2.7,3.43-4.05a4.81,4.81,0,0,1,2.65-1.74,3.09,3.09,0,0,1,2.36.34,2.93,2.93,0,0,1,1.24,2,4.06,4.06,0,0,1-.85,3c-.52.75-1,1.51-1.52,2.25a17.76,17.76,0,0,1-1.63,2.14c3.6,0,7.15,0,10.63-.11s7-.11,10.64-.11c.9,0,2.28,0,4.16-.11a35.4,35.4,0,0,1,5.63.22,11.38,11.38,0,0,1,4.72,1.52,3.08,3.08,0,0,1,1.35,3.66,6.6,6.6,0,0,1-.79,1.68,7.42,7.42,0,0,1-1.29,1.58,4.11,4.11,0,0,1-1.69.95,3.24,3.24,0,0,1-2,0q-1.35-.11-1.35-1.35-7.75-.57-16.42-.56t-20.26.22q-5.85,7.32-11.25,14.35t-10,13.55c-.53.68-1.28,1.71-2.25,3.1a45.4,45.4,0,0,0-2.53,4,8.48,8.48,0,0,0-1.18,3c-.08.72.52.73,1.8.06,1.57-.67,3.15-1.42,4.72-2.25s3.34-1.84,5.29-3,4.18-2.62,6.69-4.27,5.5-3.64,9-6q1.57-1.23,3.21-2.64a6.46,6.46,0,0,1,3.54-1.63,2.1,2.1,0,0,1,2.59,1.24,4.19,4.19,0,0,1,.11,3.15,7.53,7.53,0,0,1-2.64,3.37q-1.86,1.35-3.66,2.59-2.93,2-7.6,5.18t-9.73,6.07q-5.06,2.92-9.67,5.06a20.84,20.84,0,0,1-7.43,2.25c-1.88,0-3.17-.37-3.88-1.12a4.19,4.19,0,0,1-1.13-2.87,10.8,10.8,0,0,1,.62-3.77,20,20,0,0,1,1.58-3.6,129.37,129.37,0,0,1,11.75-18.11q6.71-8.67,13.68-17.44H173.3c-.82-.08-1.76-.12-2.81-.12a9.31,9.31,0,0,1-2.81-.39,3.08,3.08,0,0,1-2.14-4.22Z"/><path class="cls-2" d="M203.23,477.28a86.71,86.71,0,0,1-16.2,9.45,6.87,6.87,0,0,0,3.66,1.07,17.34,17.34,0,0,0,4.33-.45,29.8,29.8,0,0,0,4.44-1.35c1.47-.56,2.83-1.06,4.11-1.51a79.07,79.07,0,0,0,9-4.51q4.66-2.7,8.94-5.62a45,45,0,0,0,4.89-3.43,45.11,45.11,0,0,1,4.9-3.43,4.8,4.8,0,0,1,2.19-.74,2.92,2.92,0,0,1,1.8.45,2.37,2.37,0,0,1,1,1.47A4.26,4.26,0,0,1,236,471a7.9,7.9,0,0,1-1.63,2.48,18.19,18.19,0,0,1-2.36,2.08,31.66,31.66,0,0,1-2.7,1.8,25.25,25.25,0,0,0-2.42,1.63q-2.6,1.57-5.17,3.27t-5.18,3.26a102.3,102.3,0,0,1-11.36,5.9A46.12,46.12,0,0,1,192.77,495a25.88,25.88,0,0,1-5.4.34,14.39,14.39,0,0,1-5.07-1.07,8,8,0,0,1-3.6-3,7.31,7.31,0,0,1-.78-5.4,23.35,23.35,0,0,1,4.44-10.75,51.58,51.58,0,0,1,7.82-8.61c1.13-1,2.49-2,4.11-3.15a30.23,30.23,0,0,1,5.12-2.87,17.12,17.12,0,0,1,5.4-1.4,8.08,8.08,0,0,1,4.95,1.12q2.81,1.8,2.76,4.28a9.61,9.61,0,0,1-1.64,5A23.23,23.23,0,0,1,207,474C205.46,475.45,204.21,476.54,203.23,477.28Zm-3.37-9.11a27,27,0,0,0-6.47,4.11,26.11,26.11,0,0,0-5.23,6.13,64.79,64.79,0,0,0,10.68-6.08,16,16,0,0,0,1.47-1q.9-.68,1.74-1.35a10.2,10.2,0,0,0,1.41-1.35,1.4,1.4,0,0,0,.45-1.12,1,1,0,0,0-.79-.4,3.45,3.45,0,0,0-1.18.11,7.57,7.57,0,0,0-1.18.45A8,8,0,0,0,199.86,468.17Z"/><path class="cls-2" d="M244.75,457a5.45,5.45,0,0,1,0,3.1,14.67,14.67,0,0,1-1.35,3.09c1,0,2.19,0,3.43-.11a14.36,14.36,0,0,0,2.65-.34,3.43,3.43,0,0,1,2,.17,2.21,2.21,0,0,1,1.35,1.63,4.59,4.59,0,0,1-1,3.54,40.84,40.84,0,0,1-2.81,3.1c-.23.22-1,1.07-2.37,2.53s-2.74,3.09-4.16,4.89a40,40,0,0,0-3.54,5.18c-.94,1.65-1.07,2.78-.4,3.38a18.21,18.21,0,0,0,8.27-2.37A78.63,78.63,0,0,0,256,479.2c3.08-2.18,6.09-4.41,9.06-6.7a83.59,83.59,0,0,1,8-5.57,3.32,3.32,0,0,1,2.65-.56,3.15,3.15,0,0,1,1.8,1.24,3.23,3.23,0,0,1,.5,2.19,3.83,3.83,0,0,1-1.23,2.42,92.88,92.88,0,0,1-9.51,7.76q-5.46,3.94-11.08,7.21a110.18,110.18,0,0,1-10.75,5.51,29.67,29.67,0,0,1-8.49,2.59c-2.63.37-4.49-.3-5.57-2a8,8,0,0,1-.85-6.19,25.73,25.73,0,0,1,3.44-8,62.1,62.1,0,0,1,5.34-7.15H238c-1.28.08-2.59.19-3.94.34a7.27,7.27,0,0,1-3.82-.56,3.42,3.42,0,0,1-2.37-2.48,6.55,6.55,0,0,1,.34-3.54,17.54,17.54,0,0,1,1.86-3.66,23.6,23.6,0,0,1,2.08-2.81,31.33,31.33,0,0,1,2.7-2.31,15.53,15.53,0,0,1,3.77-2.19,6.53,6.53,0,0,1,3.71-.45C243.49,454.44,244.3,455.38,244.75,457Z"/><path class="cls-2" d="M292.12,458.05a18.48,18.48,0,0,1-4.11,5.34,52.63,52.63,0,0,1-5.57,4.44c1,.9,2,1.79,3,2.65a33.28,33.28,0,0,1,3,2.87A10.06,10.06,0,0,1,290.09,484a13.9,13.9,0,0,1-2.87,4.55A20.43,20.43,0,0,1,283,492a23.64,23.64,0,0,1-5.06,2.37,23,23,0,0,1-5.29,1.12,10.63,10.63,0,0,1-2.7-.11,9.33,9.33,0,0,1-2.53-.79,6.08,6.08,0,0,1-2-1.52,4.06,4.06,0,0,1-1-2.53,7.81,7.81,0,0,1,1-4.61,17,17,0,0,1,2.81-3.83,18,18,0,0,1,2.09-1.4,17.06,17.06,0,0,1,2.92-1.41,7.59,7.59,0,0,1,2.93-.51,2.34,2.34,0,0,1,2.08,1.3,2.53,2.53,0,0,1,.11,2.19,6.91,6.91,0,0,1-1.35,2,11.92,11.92,0,0,1-2.08,1.74c-.79.53-1.48,1-2.08,1.35-.38.23-.36.34.05.34a8.17,8.17,0,0,0,1.8-.28,26.32,26.32,0,0,0,2.76-.85,17.64,17.64,0,0,0,2.87-1.29,7.89,7.89,0,0,0,2.08-1.63,2.11,2.11,0,0,0,.56-1.91,7.49,7.49,0,0,0-2.42-3.66q-1.84-1.63-3.65-3.43c-1.05-1.05-2-2.07-2.87-3a6.4,6.4,0,0,1-1.52-3.72,10.11,10.11,0,0,1,.56-4.44,17.15,17.15,0,0,1,2.2-4.16,19.23,19.23,0,0,1,3.26-3.55,27.7,27.7,0,0,1,3.77-2.7,19.05,19.05,0,0,1,3.94-1.63,6.37,6.37,0,0,1,4.16.17,3.34,3.34,0,0,1,2.31,2.7A6.22,6.22,0,0,1,292.12,458.05Z"/><path class="cls-2" d="M407.22,458.16a2.27,2.27,0,0,1-2.14,0,2.47,2.47,0,0,1-1.07-1.4,4.9,4.9,0,0,1-.17-2,3.87,3.87,0,0,1,.68-1.86,6.13,6.13,0,0,1,3.37-2.7c-.15.08.08,0,.68-.22a4.61,4.61,0,0,1,1.12-.34,100.38,100.38,0,0,0,9.29-4.45,35.67,35.67,0,0,0,8.27-6.13c1.35-1.35,1.95-2.43,1.8-3.26s-1.24-1.42-3.27-1.8a24.44,24.44,0,0,0-5.29-.34,43,43,0,0,0-5.68.62,51,51,0,0,0-5.51,1.29,34.66,34.66,0,0,0-4.78,1.8q-2.37,1-5.52,2.65a67.14,67.14,0,0,0-6.18,3.65,41.42,41.42,0,0,0-5.52,4.39,15.53,15.53,0,0,0-3.6,4.95,6.77,6.77,0,0,0-.22,4.84,14.61,14.61,0,0,0,1.91,3.94,37,37,0,0,0,5.4,5.23,20.17,20.17,0,0,1,4.95,5.8,14.39,14.39,0,0,1,1.86,6.8,12.86,12.86,0,0,1-1.86,6.81,21.2,21.2,0,0,1-5.46,6.13,30.65,30.65,0,0,1-7.25,4.11,38.25,38.25,0,0,1-8.16,2.25,42.52,42.52,0,0,1-8,.56,29.49,29.49,0,0,1-4-.28,15.19,15.19,0,0,1-3.94-1.07,10.89,10.89,0,0,1-3.32-2.19,6.74,6.74,0,0,1-1.91-3.55,10.31,10.31,0,0,1,.73-7.08,19.81,19.81,0,0,1,4.22-6,23.25,23.25,0,0,1,2.25-2.14A25.61,25.61,0,0,1,364,475a15,15,0,0,1,3.43-1.52,3.88,3.88,0,0,1,3,.17,2.46,2.46,0,0,1,1.51,2.42,5.56,5.56,0,0,1-.84,2.87,5.49,5.49,0,0,1-3.21,2.59,18,18,0,0,0-3.77,1.57,5.66,5.66,0,0,0-2,2.14,4.08,4.08,0,0,0-.45,2.48,3.57,3.57,0,0,0,1.18,2.19,5.26,5.26,0,0,0,3.15,1.18,31.75,31.75,0,0,0,8.49,0,32.19,32.19,0,0,0,8.38-2.25,11.64,11.64,0,0,0,2.42-1.4,9.23,9.23,0,0,0,2.54-2.7,7.37,7.37,0,0,0,1.06-3.77,7.59,7.59,0,0,0-2-4.73,32.93,32.93,0,0,0-2.93-3c-1.05-.94-2.06-1.87-3-2.81a30.78,30.78,0,0,1-2.75-3,11.77,11.77,0,0,1-2-3.66,14.25,14.25,0,0,1-.23-9,29,29,0,0,1,3.94-8.1,36.13,36.13,0,0,1,6.41-6.75,60.42,60.42,0,0,1,7.88-5.46,62,62,0,0,1,8.61-4.16c3-1.16,5.86-2.15,8.72-3a60.25,60.25,0,0,1,9.56-1.75,31,31,0,0,1,9.68.51q4.61,1,6,4.5t-.85,7.54a25.84,25.84,0,0,1-5.29,7,43.19,43.19,0,0,1-7.2,5.52,67.92,67.92,0,0,1-8.15,4.27Q411.15,456.81,407.22,458.16Z"/><path class="cls-2" d="M423.87,464.46a3.33,3.33,0,0,1,3.49-.06q1.58,1,.9,3.21a4.68,4.68,0,0,1-1.47,2.36,23.31,23.31,0,0,1-2.64,2c-1,.67-2.12,1.46-3.32,2.36a18.56,18.56,0,0,0-3.38,3.37,10.06,10.06,0,0,0-1.06,1.92,15,15,0,0,0-1,2.75,6.44,6.44,0,0,0-.06,2.76,2.54,2.54,0,0,0,1.64,1.91,6.71,6.71,0,0,0,5.06.06,15.74,15.74,0,0,0,4.89-3,27.45,27.45,0,0,0,4.17-4.61A28.8,28.8,0,0,0,434,474.7a11.79,11.79,0,0,1-3-4.5,6.82,6.82,0,0,1,.62-5.63,8.4,8.4,0,0,1,3.21-3.37A8,8,0,0,1,439,460a5.23,5.23,0,0,1,3.6,1.35q1.51,1.35,1.41,4.5a17.5,17.5,0,0,1-.56,4.16l1.23.39a9.24,9.24,0,0,0,1.35.29,28.36,28.36,0,0,0,18.68-3l1.58-.79a5.42,5.42,0,0,1,1.74-.56,2.1,2.1,0,0,1,1.46.28,2.74,2.74,0,0,1,1,1.63,3.83,3.83,0,0,1-.17,2.53,6.49,6.49,0,0,1-1.41,2.08,8.14,8.14,0,0,1-2.08,1.52c-.78.42-1.52.77-2.19,1.07a52,52,0,0,1-5.74,2.08,46.86,46.86,0,0,1-6.41,1.47,35.36,35.36,0,0,1-6.47.39,17.61,17.61,0,0,1-6-1.24,38,38,0,0,1-3.38,4.73c-1.2,1.42-2.4,2.74-3.6,3.93a37.66,37.66,0,0,1-3.82,3.55,28.71,28.71,0,0,1-4.56,3,20.77,20.77,0,0,1-5,1.91,12.09,12.09,0,0,1-5.29.06,7.46,7.46,0,0,1-4.5-2.59,9.59,9.59,0,0,1-1.85-4.33,13.7,13.7,0,0,1,.17-5.12,21.64,21.64,0,0,1,1.57-4.84,28.36,28.36,0,0,1,5.91-8.27A29.72,29.72,0,0,1,423.87,464.46Z"/><path class="cls-2" d="M482.26,475.93a4.5,4.5,0,0,1-1.57.85,4.07,4.07,0,0,1-1.75.17,2.54,2.54,0,0,1-1.4-.62,2.61,2.61,0,0,1-.68-1.75A5,5,0,0,1,478.1,471a21.39,21.39,0,0,1,3.38-3.21,22.21,22.21,0,0,0-9.79,3,26.92,26.92,0,0,0-7,6.41,13.84,13.84,0,0,0-1.35,2.2,16.91,16.91,0,0,0-1.24,3.09,7.59,7.59,0,0,0-.28,3,2.08,2.08,0,0,0,1.52,1.86,8.74,8.74,0,0,0,5.91-.28c2.14-.79,4.22-1.59,6.24-2.42A56.49,56.49,0,0,0,481,482q3.76-2.07,8-4.5t8-4.84a60.19,60.19,0,0,0,5.74-4c.37-.3.83-.64,1.35-1a11.8,11.8,0,0,1,1.69-1,4,4,0,0,1,1.8-.45,2.56,2.56,0,0,1,1.69.67,2.92,2.92,0,0,1,.5,3.94,15.08,15.08,0,0,1-3.77,4.05,41.73,41.73,0,0,1-5.17,3.43c-1.8,1-3,1.74-3.71,2.19q-4.85,3-9.68,6a77.26,77.26,0,0,1-10.24,5.17c-1.35.61-2.87,1.22-4.56,1.86a43,43,0,0,1-5.11,1.58,28.09,28.09,0,0,1-5.18.73,10,10,0,0,1-4.73-.9,6.16,6.16,0,0,1-3.26-3.44,10.68,10.68,0,0,1-.56-4.67,19,19,0,0,1,1.12-4.89,30.67,30.67,0,0,1,1.91-4.22,35.48,35.48,0,0,1,5.74-7.93,34.82,34.82,0,0,1,7.77-6.13,34.2,34.2,0,0,1,4-2,36.46,36.46,0,0,1,5.23-1.85,16.64,16.64,0,0,1,5.18-.62,5.26,5.26,0,0,1,3.94,1.8,4.75,4.75,0,0,1,1.4,4,11.48,11.48,0,0,1-1.52,4.33,19.08,19.08,0,0,1-3,3.94A23.82,23.82,0,0,1,482.26,475.93Z"/><path class="cls-2" d="M509,461.76a4.3,4.3,0,0,1,2-1.46,4.67,4.67,0,0,1,2.31-.29,2.51,2.51,0,0,1,1.69,1,3,3,0,0,1,.17,2.53,5.6,5.6,0,0,1-1.41,2.59,23.24,23.24,0,0,0-2,2.36,23.57,23.57,0,0,0-2.7,3.32q-1.35,2-2.64,3.93c-.87,1.32-1.63,2.58-2.31,3.78a27,27,0,0,0-1.46,2.92,17,17,0,0,0-.79,1.86,5.16,5.16,0,0,0-.34,1.63,1,1,0,0,0,.51,1c.34.18,1,0,1.86-.4a48.71,48.71,0,0,0,10.46-5.23q5.07-3.31,9.9-6.36c1.88-1.27,3.81-2.72,5.8-4.33a32,32,0,0,1,6.24-4,3.14,3.14,0,0,1,2.7-.29,2.55,2.55,0,0,1,1.35,1.58,4.32,4.32,0,0,1,0,2.42,4.89,4.89,0,0,1-1.35,2.36,33,33,0,0,1-6.19,4.84c-2.32,1.42-4.54,2.81-6.64,4.16s-4.37,2.83-6.58,4.22-4.48,2.72-6.8,4c-2,1.12-4.22,2.27-6.59,3.43a22.52,22.52,0,0,1-7.25,2.19,5,5,0,0,1-2.93-.56,4.28,4.28,0,0,1-1.69-1.86,7.38,7.38,0,0,1-.67-2.64,10.58,10.58,0,0,1,.22-3,31.66,31.66,0,0,1,2.25-7,50.46,50.46,0,0,1,3.66-6.69q2.08-3.21,4.45-6.24C505.89,465.47,507.47,463.56,509,461.76Zm19-16.54a7.8,7.8,0,0,1,.11,2.25,5.64,5.64,0,0,1-.9,2.47,6.43,6.43,0,0,1-2.82,2.54,6.5,6.5,0,0,1-3.43.67,4,4,0,0,1-2.7-1.35c-.71-.79-.88-2-.5-3.77a5.79,5.79,0,0,1,1.63-3,10,10,0,0,1,3.09-2.31,4.6,4.6,0,0,1,3.27-.33C526.85,442.7,527.6,443.64,528.06,445.22Z"/><path class="cls-2" d="M548.87,477.28a86.71,86.71,0,0,1-16.2,9.45,6.87,6.87,0,0,0,3.66,1.07,17.34,17.34,0,0,0,4.33-.45A29.8,29.8,0,0,0,545.1,486c1.46-.56,2.83-1.06,4.11-1.51a78.14,78.14,0,0,0,8.94-4.51q4.67-2.7,9-5.62a46,46,0,0,0,4.89-3.43,45.11,45.11,0,0,1,4.9-3.43,4.76,4.76,0,0,1,2.19-.74,2.92,2.92,0,0,1,1.8.45,2.37,2.37,0,0,1,1,1.47,4.26,4.26,0,0,1-.23,2.3,8.08,8.08,0,0,1-1.63,2.48,18.19,18.19,0,0,1-2.36,2.08q-1.3,1-2.7,1.8A24,24,0,0,0,572.5,479c-1.73,1-3.45,2.14-5.18,3.27s-3.45,2.21-5.17,3.26a101.58,101.58,0,0,1-11.37,5.9A46,46,0,0,1,538.41,495a25.93,25.93,0,0,1-5.41.34,14.38,14.38,0,0,1-5.06-1.07,8,8,0,0,1-3.6-3,7.36,7.36,0,0,1-.79-5.4A23.47,23.47,0,0,1,528,475.09a51.15,51.15,0,0,1,7.82-8.61,50.23,50.23,0,0,1,4.11-3.15,30.14,30.14,0,0,1,5.11-2.87,17.17,17.17,0,0,1,5.41-1.4,8.09,8.09,0,0,1,4.95,1.12q2.8,1.8,2.75,4.28a9.6,9.6,0,0,1-1.63,5,23.23,23.23,0,0,1-3.88,4.61C551.1,475.45,549.85,476.54,548.87,477.28Zm-3.38-9.11a27.18,27.18,0,0,0-6.46,4.11,26.14,26.14,0,0,0-5.24,6.13,64.48,64.48,0,0,0,10.69-6.08,16.15,16.15,0,0,0,1.46-1c.6-.45,1.19-.9,1.75-1.35a10.2,10.2,0,0,0,1.41-1.35,1.4,1.4,0,0,0,.45-1.12,1,1,0,0,0-.79-.4,3.45,3.45,0,0,0-1.18.11,7.21,7.21,0,0,0-1.18.45A9.33,9.33,0,0,0,545.49,468.17Z"/><path class="cls-2" d="M580.82,443.53a3.35,3.35,0,0,1,.9-2,5.16,5.16,0,0,1,1.75-1.24,5,5,0,0,1,1.91-.39,1.92,1.92,0,0,1,1.52.67,14.63,14.63,0,0,0,4.56.23q2.52-.22,6.35-.23c1.13-1.35,2.23-2.7,3.32-4.05s2.23-2.7,3.43-4.05a4.81,4.81,0,0,1,2.65-1.74,3.09,3.09,0,0,1,2.36.34,2.93,2.93,0,0,1,1.24,2,4.06,4.06,0,0,1-.85,3c-.52.75-1,1.51-1.52,2.25a16.79,16.79,0,0,1-1.63,2.14c3.6,0,7.15,0,10.64-.11s7-.11,10.63-.11c.9,0,2.29,0,4.16-.11a35.36,35.36,0,0,1,5.63.22,11.38,11.38,0,0,1,4.72,1.52,3.08,3.08,0,0,1,1.35,3.66,6.6,6.6,0,0,1-.79,1.68,7.42,7.42,0,0,1-1.29,1.58,4.11,4.11,0,0,1-1.69.95,3.21,3.21,0,0,1-2,0c-.91-.07-1.36-.52-1.36-1.35q-7.76-.57-16.42-.56t-20.26.22q-5.85,7.32-11.25,14.35t-10,13.55c-.53.68-1.28,1.71-2.25,3.1a45.4,45.4,0,0,0-2.53,4,8.48,8.48,0,0,0-1.18,3c-.08.72.52.73,1.8.06,1.57-.67,3.15-1.42,4.72-2.25s3.34-1.84,5.29-3,4.18-2.62,6.7-4.27,5.49-3.64,8.94-6q1.58-1.23,3.21-2.64a6.46,6.46,0,0,1,3.54-1.63,2.1,2.1,0,0,1,2.59,1.24,4.19,4.19,0,0,1,.11,3.15,7.46,7.46,0,0,1-2.64,3.37q-1.86,1.35-3.66,2.59-2.92,2-7.6,5.18t-9.73,6.07q-5.06,2.92-9.67,5.06a20.78,20.78,0,0,1-7.43,2.25c-1.88,0-3.17-.37-3.88-1.12a4.19,4.19,0,0,1-1.13-2.87,10.8,10.8,0,0,1,.62-3.77,20,20,0,0,1,1.58-3.6,128.55,128.55,0,0,1,11.76-18.11q6.69-8.67,13.67-17.44h-3.15q-1.25-.12-2.82-.12a9.31,9.31,0,0,1-2.81-.39,3.08,3.08,0,0,1-2.14-4.22Z"/><path class="cls-2" d="M611.54,460.86a4.1,4.1,0,0,1,2.42-1,3.68,3.68,0,0,1,2.19.51,2.85,2.85,0,0,1,1.24,1.57,2.44,2.44,0,0,1-.56,2.25,47.55,47.55,0,0,1-4.73,5.52c-1.72,1.72-3.43,3.45-5.12,5.17s-3.3,3.55-4.84,5.46a26.77,26.77,0,0,0-3.77,6.35,58.46,58.46,0,0,0,14.35-6.13A120.49,120.49,0,0,0,629.43,469l1.69-1.46a14.84,14.84,0,0,1,2-1.47,11.8,11.8,0,0,1,2.13-1.07,4.12,4.12,0,0,1,2.2-.17c1.12.23,1.74.7,1.85,1.41a4.56,4.56,0,0,1-.33,2.37,9.17,9.17,0,0,1-1.41,2.41l-1.35,1.69-11.93,14.06,5.52-3.65c1.87-1.24,3.94-2.57,6.19-4s4.76-3,7.53-4.73l9.45-5.85c.75-.53,1.6-1.11,2.54-1.75a3.42,3.42,0,0,1,3-.5,2.45,2.45,0,0,1,1.69,2,4.63,4.63,0,0,1-.34,2.64,4.94,4.94,0,0,1-1.91,2.48,32.77,32.77,0,0,1-2.82,1.68L634,488.2q-6.63,4.28-12.94,9.05t-13.05,10.3c-1,.9-2,1.74-2.76,2.53s-1.53,1.56-2.25,2.31-1.44,1.5-2.19,2.25a22.73,22.73,0,0,1-2.48,2.14,3.11,3.11,0,0,1-3.26.17,2.42,2.42,0,0,1-1.23-3,8.59,8.59,0,0,1,2.25-4q1.68-1.74,2.92-3.32l18.12-21.49c-1.21.75-2.72,1.73-4.56,2.93s-3.81,2.34-5.91,3.43a48.89,48.89,0,0,1-6.19,2.7,11.25,11.25,0,0,1-5.29.73q-3.6-.45-4.33-2.7a8.87,8.87,0,0,1,0-5.06,22.85,22.85,0,0,1,2.31-5.57c1-1.84,1.95-3.28,2.7-4.34a74.07,74.07,0,0,1,7.37-8.6Q607.26,464.69,611.54,460.86Z"/></g></g></svg>